<?xml version="1.0" encoding="utf-8"?>
<!-- Generator: Adobe Illustrator 19.1.0, SVG Export Plug-In . SVG Version: 6.00 Build 0)  -->
<svg version="1.1" id="Layer_1" xmlns="http://www.w3.org/2000/svg" xmlns:xlink="http://www.w3.org/1999/xlink" x="0px" y="0px"
	 viewBox="0 0 565.3 104.8" style="enable-background:new 0 0 565.3 104.8;" xml:space="preserve">
<style type="text/css">
	.st0{fill:#434345;}
	.st1{fill:#58C5C7;}
</style>
<path class="st0" d="M391.8,104.3V24.9h6.3c1.5,0,2.4,0.7,2.8,2.2l0.9,7c2.5-3.1,5.4-5.6,8.7-7.4c3.3-1.9,7-2.8,11.2-2.8
	c3.4,0,6.5,0.7,9.3,2c2.8,1.3,5.1,3.2,7.1,5.8c2,2.6,3.5,5.7,4.5,9.5c1.1,3.8,1.6,8.1,1.6,13.1c0,4.4-0.6,8.4-1.8,12.2
	c-1.2,3.8-2.9,7-5.1,9.8c-2.2,2.8-4.9,4.9-8.1,6.5c-3.2,1.6-6.8,2.4-10.7,2.4c-3.6,0-6.7-0.6-9.3-1.8c-2.6-1.2-4.9-2.9-6.9-5.2v26.2
	H391.8z M418.2,32.3c-3.4,0-6.4,0.8-8.9,2.3c-2.6,1.6-4.9,3.8-7.1,6.6v28.7c1.9,2.6,4,4.4,6.2,5.4c2.3,1.1,4.8,1.6,7.6,1.6
	c5.5,0,9.8-2,12.8-5.9c3-3.9,4.4-9.6,4.4-16.9c0-3.9-0.3-7.2-1-9.9c-0.7-2.8-1.7-5-3-6.8c-1.3-1.8-2.9-3.1-4.7-3.9
	S420.6,32.3,418.2,32.3z"/>
<path class="st0" d="M495.1,84.2c-1,0-1.8-0.2-2.3-0.5c-0.5-0.3-1-1-1.3-2l-1.2-5.6c-1.6,1.4-3.1,2.7-4.6,3.8s-3.1,2-4.7,2.8
	c-1.6,0.8-3.4,1.3-5.2,1.8c-1.9,0.4-3.9,0.6-6.2,0.6c-2.3,0-4.5-0.3-6.5-1c-2-0.6-3.8-1.6-5.3-2.9c-1.5-1.3-2.7-2.9-3.6-4.9
	c-0.9-2-1.3-4.3-1.3-7c0-2.3,0.6-4.6,1.9-6.8c1.3-2.2,3.4-4.1,6.3-5.8c2.9-1.7,6.7-3.1,11.3-4.1c4.6-1.1,10.3-1.7,17.1-1.8v-4.6
	c0-4.6-1-8.1-3-10.4c-2-2.4-4.9-3.5-8.7-3.5c-2.6,0-4.7,0.3-6.5,1c-1.7,0.6-3.2,1.4-4.5,2.2c-1.3,0.8-2.4,1.5-3.3,2.2
	c-0.9,0.6-1.8,1-2.7,1c-0.7,0-1.3-0.2-1.8-0.6c-0.5-0.4-0.9-0.8-1.3-1.4l-1.9-3.3c3.3-3.2,6.8-5.5,10.6-7.1c3.8-1.6,8-2.3,12.6-2.3
	c3.3,0,6.3,0.5,8.8,1.6c2.6,1.1,4.7,2.6,6.5,4.6c1.8,2,3.1,4.3,4,7.1c0.9,2.8,1.3,5.8,1.3,9.1v37.9H495.1z M472.7,77.8
	c1.8,0,3.5-0.2,5-0.6c1.5-0.4,3-0.9,4.3-1.6c1.3-0.7,2.6-1.5,3.9-2.5c1.2-1,2.4-2.1,3.6-3.4V57.5c-4.8,0.2-8.9,0.5-12.3,1.1
	c-3.4,0.6-6.1,1.4-8.3,2.4c-2.1,1-3.7,2.1-4.6,3.5c-1,1.3-1.4,2.8-1.4,4.4c0,1.6,0.3,2.9,0.8,4c0.5,1.1,1.2,2.1,2.1,2.8
	c0.9,0.7,1.9,1.2,3.1,1.6C470.1,77.7,471.4,77.8,472.7,77.8z"/>
<path class="st0" d="M532.3,101.7c-0.4,0.8-0.8,1.4-1.3,1.9c-0.5,0.5-1.3,0.7-2.4,0.7h-7.7l10.8-23.5l-24.5-55.8h9
	c0.9,0,1.6,0.2,2.1,0.7c0.5,0.4,0.9,0.9,1.1,1.5l15.9,37.3c0.3,0.9,0.6,1.8,0.9,2.6c0.3,0.8,0.5,1.7,0.7,2.6
	c0.5-1.8,1.1-3.5,1.8-5.3L554,27.1c0.2-0.6,0.6-1.1,1.2-1.6c0.6-0.4,1.2-0.6,1.9-0.6h8.3L532.3,101.7z"/>
<g>
	<path class="st0" d="M153.5,25c4.2,0,7.9,0.7,11.2,2.1c3.3,1.4,6.1,3.4,8.3,6.1c2.3,2.6,4,5.8,5.2,9.5c1.2,3.7,1.8,7.8,1.8,12.4
		s-0.6,8.7-1.8,12.3c-1.2,3.7-2.9,6.8-5.2,9.4c-2.3,2.6-5,4.6-8.3,6c-3.3,1.4-7,2.1-11.2,2.1c-4.2,0-7.9-0.7-11.2-2.1
		c-3.3-1.4-6.1-3.4-8.4-6c-2.3-2.6-4-5.8-5.2-9.4c-1.2-3.7-1.8-7.8-1.8-12.3s0.6-8.7,1.8-12.4c1.2-3.7,2.9-6.8,5.2-9.5
		c2.3-2.6,5.1-4.6,8.4-6.1C145.6,25.8,149.4,25,153.5,25z M153.5,80.6c3.5,0,6.5-0.6,9.1-1.8c2.6-1.2,4.8-2.9,6.5-5.1
		c1.7-2.2,3-4.9,3.9-8c0.9-3.1,1.3-6.7,1.3-10.6c0-3.9-0.4-7.4-1.3-10.5c-0.9-3.2-2.2-5.9-3.9-8.1c-1.7-2.2-3.9-4-6.5-5.2
		c-2.6-1.2-5.6-1.8-9.1-1.8c-3.5,0-6.5,0.6-9.1,1.8c-2.6,1.2-4.8,2.9-6.5,5.2c-1.7,2.2-3,4.9-3.9,8.1c-0.9,3.2-1.3,6.7-1.3,10.5
		c0,3.9,0.4,7.4,1.3,10.6s2.2,5.8,3.9,8c1.7,2.2,3.9,3.9,6.5,5.1C147,80,150.1,80.6,153.5,80.6z"/>
	<path class="st0" d="M195.8,104.8V26h3.1c1,0,1.5,0.5,1.7,1.5l0.5,9c2.6-3.5,5.6-6.3,9.1-8.4c3.5-2.1,7.4-3.1,11.6-3.1
		c7.1,0,12.7,2.5,16.7,7.4c4,5,6,12.4,6,22.3c0,4.3-0.6,8.2-1.7,11.9c-1.1,3.7-2.8,6.9-4.9,9.6c-2.2,2.7-4.8,4.8-8,6.4
		c-3.1,1.6-6.8,2.3-10.9,2.3c-3.9,0-7.4-0.7-10.2-2.2c-2.9-1.4-5.4-3.6-7.5-6.4v28.4H195.8z M220.3,29.5c-3.9,0-7.4,1-10.5,3
		c-3.1,2-5.9,4.8-8.4,8.3v30.7c2.2,3.4,4.7,5.7,7.4,7.1c2.7,1.3,5.8,2,9.3,2c3.4,0,6.4-0.6,9-1.9c2.6-1.2,4.7-3,6.5-5.3
		c1.7-2.3,3-5,3.9-8.2c0.9-3.2,1.3-6.7,1.3-10.5c0-8.7-1.6-15-4.8-19.1C230.8,31.5,226.2,29.5,220.3,29.5z"/>
	<path class="st0" d="M308,27.8v56.4h-5.6V32h-33.7v39.5c0,1.6,0.2,3,0.6,4.1c0.4,1.2,1,2.1,1.7,2.8c0.7,0.7,1.6,1.3,2.5,1.6
		c1,0.4,2,0.5,3.2,0.5c1.4,0,2.6-0.2,3.6-0.6c1-0.4,1.9-0.9,2.6-1.3c0.7-0.5,1.3-0.9,1.8-1.3c0.5-0.4,0.8-0.6,1.1-0.6
		c0.3,0,0.6,0.2,0.9,0.6l1.5,2.5c-1.5,1.6-3.4,3-5.6,4c-2.3,1-4.7,1.5-7.1,1.5c-3.9,0-7-1.1-9.2-3.3c-2.2-2.2-3.3-5.6-3.3-10.1V32
		h-8.4c-0.4,0-0.8-0.1-1.1-0.4c-0.3-0.2-0.4-0.6-0.4-1v-2.2l9.9-0.7l1.4-20.8c0.1-0.4,0.2-0.7,0.5-0.9c0.2-0.3,0.6-0.4,1-0.4h2.6
		v22.2H308z M310.6,5.2c0,0.7-0.1,1.4-0.4,2c-0.3,0.6-0.7,1.1-1.2,1.6c-0.5,0.5-1,0.8-1.7,1.1c-0.6,0.3-1.3,0.4-2,0.4
		s-1.4-0.1-2-0.4c-0.6-0.3-1.2-0.6-1.6-1.1s-0.8-1-1.1-1.6c-0.3-0.6-0.4-1.3-0.4-2c0-0.7,0.1-1.4,0.4-2c0.3-0.6,0.6-1.2,1.1-1.7
		s1-0.8,1.6-1.1c0.6-0.3,1.3-0.4,2-0.4s1.4,0.1,2,0.4c0.6,0.3,1.2,0.6,1.7,1.1c0.5,0.5,0.9,1,1.2,1.7C310.4,3.8,310.6,4.5,310.6,5.2
		z"/>
	<path class="st0" d="M350.9,25c4.2,0,7.9,0.7,11.2,2.1c3.3,1.4,6.1,3.4,8.3,6.1c2.3,2.6,4,5.8,5.2,9.5c1.2,3.7,1.8,7.8,1.8,12.4
		s-0.6,8.7-1.8,12.3c-1.2,3.7-2.9,6.8-5.2,9.4c-2.3,2.6-5,4.6-8.3,6c-3.3,1.4-7,2.1-11.2,2.1c-4.2,0-7.9-0.7-11.2-2.1
		c-3.3-1.4-6.1-3.4-8.4-6c-2.3-2.6-4-5.8-5.2-9.4c-1.2-3.7-1.8-7.8-1.8-12.3s0.6-8.7,1.8-12.4c1.2-3.7,2.9-6.8,5.2-9.5
		c2.3-2.6,5.1-4.6,8.4-6.1C343,25.8,346.7,25,350.9,25z M350.9,80.6c3.5,0,6.5-0.6,9.1-1.8c2.6-1.2,4.8-2.9,6.5-5.1
		c1.7-2.2,3-4.9,3.9-8c0.9-3.1,1.3-6.7,1.3-10.6c0-3.9-0.4-7.4-1.3-10.5c-0.9-3.2-2.2-5.9-3.9-8.1c-1.7-2.2-3.9-4-6.5-5.2
		c-2.6-1.2-5.6-1.8-9.1-1.8c-3.5,0-6.5,0.6-9.1,1.8c-2.6,1.2-4.8,2.9-6.5,5.2c-1.7,2.2-3,4.9-3.9,8.1c-0.9,3.2-1.3,6.7-1.3,10.5
		c0,3.9,0.4,7.4,1.3,10.6s2.2,5.8,3.9,8c1.7,2.2,3.9,3.9,6.5,5.1C344.4,80,347.4,80.6,350.9,80.6z"/>
</g>
<path class="st1" d="M52.3,0C23.4,0,0,23.4,0,52.3c0,21,12.3,39,30.1,47.4V53.3c0-0.5,0.1-1,0.1-1.5c0.3-11.9,10.1-21.5,22-21.5
	c12.1,0,22,9.8,22,22c0,12.1-9.8,22-22,22c-2.9,0-5.7-0.6-8.3-1.6v31.3c2.7,0.4,5.5,0.7,8.3,0.7c28.9,0,52.3-23.4,52.3-52.3
	C104.6,23.4,81.2,0,52.3,0z"/>
</svg>
